/* XPM */
static char * close_pressed_xpm[] = {
"24 26 93 2",
"  	c None",
". 	c #666666",
"+ 	c #616161",
"@ 	c #656565",
"# 	c #646464",
"$ 	c #6B6C6E",
"% 	c #414143",
"& 	c #201F20",
"* 	c #060404",
"= 	c #0F0E0E",
"- 	c #424244",
"; 	c #6A6B6E",
"> 	c #636363",
", 	c #6E6F71",
"' 	c #2F2D2F",
") 	c #020000",
"! 	c #2D2C2D",
"~ 	c #6E6E71",
"{ 	c #6C6D70",
"] 	c #0C0A0B",
"^ 	c #0E0C0C",
"/ 	c #6D6E71",
"( 	c #626262",
"_ 	c #6C6D6F",
": 	c #0D0B0B",
"< 	c #6D6E70",
"[ 	c #2C2A2C",
"} 	c #2E2D2E",
"| 	c #666769",
"1 	c #4C4B4B",
"2 	c #C5C5C5",
"3 	c #262424",
"4 	c #1D1B1B",
"5 	c #BFBEBE",
"6 	c #5F5E5E",
"7 	c #696A6C",
"8 	c #404042",
"9 	c #C6C6C6",
"0 	c #DADADA",
"a 	c #C3C3C3",
"b 	c #201E1E",
"c 	c #1E1C1C",
"d 	c #C0C0C0",
"e 	c #CCCCCC",
"f 	c #151313",
"g 	c #606060",
"h 	c #1E1C1D",
"i 	c #C0BFBF",
"j 	c #CACACA",
"k 	c #2E2C2C",
"l 	c #222021",
"m 	c #0A0808",
"n 	c #292727",
"o 	c #0B090A",
"p 	c #5F5F5F",
"q 	c #090707",
"r 	c #191717",
"s 	c #BAB9B9",
"t 	c #1F1D1E",
"u 	c #BDBCBC",
"v 	c #C1C1C1",
"w 	c #242222",
"x 	c #222022",
"y 	c #5E5E5E",
"z 	c #3E3E41",
"A 	c #C9C9C9",
"B 	c #282626",
"C 	c #222020",
"D 	c #656668",
"E 	c #616060",
"F 	c #CDCDCD",
"G 	c #232121",
"H 	c #757474",
"I 	c #66676A",
"J 	c #5D5D5D",
"K 	c #161414",
"L 	c #171515",
"M 	c #2C2C2E",
"N 	c #67686A",
"O 	c #0D0B0C",
"P 	c #5C5C5C",
"Q 	c #656769",
"R 	c #67686B",
"S 	c #2B2A2B",
"T 	c #2B2A2C",
"U 	c #5B5B5B",
"V 	c #626366",
"W 	c #3E3E40",
"X 	c #1F1E1F",
"Y 	c #0E0D0D",
"Z 	c #201E20",
"` 	c #5A5A5A",
" .	c #595959",
". . . . . . . . . . . . . . . . . . . . . . . + ",
"@ @ @ @ @ @ @ @ @ @ @ @ @ @ @ @ @ @ @ @ @ @ @ @ ",
"@ @ @ @ @ @ @ @ @ @ @ @ @ @ @ @ @ @ @ @ @ @ @ @ ",
"# # # # # # # # # # # # # # # # # # # # # # # # ",
"# # # # # # # # $ % & * = & - ; # # # # # # # # ",
"> > > > > > , ' ) ) ) ) ) ) ) ) ! ~ > > > > > > ",
"> > > > > { ] ) ) ) ) ) ) ) ) ) ) ^ / > > > > > ",
"( ( ( ( _ : ) ) ) ) ) ) ) ) ) ) ) ) : < ( ( ( ( ",
"( ( ( + [ ) ) ) ) : ) ) ) ) : ) ) ) ) } ( ( ( ( ",
"+ + + | ) ) ) ) 1 2 3 ) ) 4 5 6 ) ) ) ) 7 + + + ",
"+ + + 8 ) ) ) ^ 9 0 a b c d 0 e f ) ) ) % + + + ",
"g g g h ) ) ) ) 3 2 0 i i 0 j k ) ) ) ) l g g g ",
"g g g m ) ) ) ) ) c 5 0 0 9 n ) ) ) ) ) o g g g ",
"p p p q ) ) ) ) ) r s 0 0 i b ) ) ) ) ) : p p p ",
"p p p t ) ) ) ) 4 u 0 2 v 0 a w ) ) ) ) x p p p ",
"y y y z ) ) ) ^ i 0 A B C 2 0 9 f ) ) ) 8 y y y ",
"y y y D ) ) ) ) E F k ) ) G 2 H ) ) ) ) I y y y ",
"J J J J [ ) ) ) ) K ) ) ) ) L ) ) ) ) M J J J J ",
"J J J J N ] ) ) ) ) ) ) ) ) ) ) ) ) O N J J J J ",
"P P P P P Q O ) ) ) ) ) ) ) ) ) ) O R P P P P P ",
"P P P P P P D S ) ) ) ) ) ) ) ) T N P P P P P P ",
"U U U U U U U U V W X Y Y Z z V U U U U U U U U ",
"U U U U U U U U U U U U U U U U U U U U U U U U ",
"` ` ` ` ` ` ` ` ` ` ` ` ` ` ` ` ` ` ` ` ` ` ` ` ",
"` ` ` ` ` ` ` ` ` ` ` ` ` ` ` ` ` ` ` ` ` ` ` ` ",
" . . . . . . . . . . . . . . . . . . . . . . . ."};
