/* XPM */
static char * close_active_xpm[] = {
"24 26 118 2",
"  	c None",
". 	c #666666",
"+ 	c #616161",
"@ 	c #656565",
"# 	c #646464",
"$ 	c #89797D",
"% 	c #AD6A70",
"& 	c #C35860",
"* 	c #CD4951",
"= 	c #CD4F57",
"- 	c #AD6A71",
"; 	c #636363",
"> 	c #7C7779",
", 	c #B75F66",
"' 	c #CF464F",
") 	c #B75E65",
"! 	c #7C7678",
"~ 	c #887A7D",
"{ 	c #CD4C55",
"] 	c #CF464E",
"^ 	c #CD4D56",
"/ 	c #887B7E",
"( 	c #626262",
"_ 	c #7B7577",
": 	c #CC4C55",
"< 	c #7B7678",
"[ 	c #B65C63",
"} 	c #CE454E",
"| 	c #D04D56",
"1 	c #B55E64",
"2 	c #867579",
"3 	c #CE454D",
"4 	c #DC7C81",
"5 	c #F3D5D6",
"6 	c #D66067",
"7 	c #D35960",
"8 	c #F2CFD2",
"9 	c #E08A8F",
"0 	c #86777B",
"a 	c #A9676D",
"b 	c #D14E56",
"c 	c #F4D6D7",
"d 	c #F8E4E5",
"e 	c #F3D3D5",
"f 	c #D45B62",
"g 	c #F3D1D3",
"h 	c #F6DADC",
"i 	c #D1525A",
"j 	c #A9686E",
"k 	c #606060",
"l 	c #C0555D",
"m 	c #CD444D",
"n 	c #D55F66",
"o 	c #F3D0D3",
"p 	c #F5D8D9",
"q 	c #D6656C",
"r 	c #BF575F",
"s 	c #CB4951",
"t 	c #CD444C",
"u 	c #D2585F",
"v 	c #F4D5D7",
"w 	c #D56168",
"x 	c #CB4A52",
"y 	c #5F5F5F",
"z 	c #CA4850",
"A 	c #D2555C",
"B 	c #F1CBCE",
"C 	c #D35A61",
"D 	c #C94B52",
"E 	c #BF545C",
"F 	c #CC434C",
"G 	c #D1575F",
"H 	c #F1CED0",
"I 	c #F3D4D6",
"J 	c #D35C63",
"K 	c #BE555E",
"L 	c #5E5E5E",
"M 	c #A7656B",
"N 	c #CC434B",
"O 	c #CF4C54",
"P 	c #F2D0D2",
"Q 	c #F4D7D9",
"R 	c #D35F66",
"S 	c #D35B62",
"T 	c #D05159",
"U 	c #A7656C",
"V 	c #827276",
"W 	c #DF8A8F",
"X 	c #F5DADB",
"Y 	c #D4636A",
"Z 	c #D25B62",
"` 	c #E3989D",
" .	c #827376",
"..	c #5D5D5D",
"+.	c #B25961",
"@.	c #CB424B",
"#.	c #CF5159",
"$.	c #D0525A",
"%.	c #B25B61",
"&.	c #756F71",
"*.	c #C84850",
"=.	c #CB424A",
"-.	c #C84851",
";.	c #5C5C5C",
">.	c #817276",
",.	c #817376",
"'.	c #736D70",
").	c #B0585F",
"!.	c #CA414A",
"~.	c #746E71",
"{.	c #5B5B5B",
"].	c #7F7073",
"^.	c #A36268",
"/.	c #BB525A",
"(.	c #C74951",
"_.	c #A36369",
":.	c #5A5A5A",
"<.	c #595959",
". . . . . . . . . . . . . . . . . . . . . . . + ",
"@ @ @ @ @ @ @ @ @ @ @ @ @ @ @ @ @ @ @ @ @ @ @ @ ",
"@ @ @ @ @ @ @ @ @ @ @ @ @ @ @ @ @ @ @ @ @ @ @ @ ",
"# # # # # # # # # # # # # # # # # # # # # # # # ",
"# # # # # # # # $ % & * = & - $ # # # # # # # # ",
"; ; ; ; ; ; > , ' ' ' ' ' ' ' ' ) ! ; ; ; ; ; ; ",
"; ; ; ; ; ~ { ] ] ] ] ] ] ] ] ] ] ^ / ; ; ; ; ; ",
"( ( ( ( _ : ] ] ] ] ] ] ] ] ] ] ] ] : < ( ( ( ( ",
"( ( ( + [ } } } } | } } } } | } } } } 1 ( ( ( ( ",
"+ + + 2 3 3 3 3 4 5 6 3 3 7 8 9 3 3 3 3 0 + + + ",
"+ + + a 3 3 3 b c d e f 7 g d h i 3 3 3 j + + + ",
"k k k l m m m m n 5 d o o d p q m m m m r k k k ",
"k k k s t t t t t u 8 d d v w t t t t t x k k k ",
"y y y z t t t t t A B d d o C t t t t t D y y y ",
"y y y E F F F F G H d I g d e J F F F F K y y y ",
"L L L M N N N O P d Q R S I d v T N N N U L L L ",
"L L L V N N N N W X Y N N Z I ` N N N N  .L L L ",
"........+.@.@.@.@.#.@.@.@.@.$.@.@.@.@.%.........",
"........&.*.=.=.=.=.=.=.=.=.=.=.=.=.-.&.........",
";.;.;.;.;.>.-.=.=.=.=.=.=.=.=.=.=.-.,.;.;.;.;.;.",
";.;.;.;.;.;.'.).!.!.!.!.!.!.!.!.).~.;.;.;.;.;.;.",
"{.{.{.{.{.{.{.{.].^./.(.(./._.].{.{.{.{.{.{.{.{.",
"{.{.{.{.{.{.{.{.{.{.{.{.{.{.{.{.{.{.{.{.{.{.{.{.",
":.:.:.:.:.:.:.:.:.:.:.:.:.:.:.:.:.:.:.:.:.:.:.:.",
":.:.:.:.:.:.:.:.:.:.:.:.:.:.:.:.:.:.:.:.:.:.:.:.",
"<.<.<.<.<.<.<.<.<.<.<.<.<.<.<.<.<.<.<.<.<.<.<.<."};
