/* XPM */
static char * close_prelight_xpm[] = {
"24 26 113 2",
"  	c None",
". 	c #666666",
"+ 	c #616161",
"@ 	c #656565",
"# 	c #646464",
"$ 	c #877376",
"% 	c #AC5258",
"& 	c #C4373F",
"* 	c #CF1F28",
"= 	c #D02730",
"- 	c #AC5359",
"; 	c #887276",
"> 	c #636363",
", 	c #7B7376",
"' 	c #B8424A",
") 	c #D21B24",
"! 	c #B84148",
"~ 	c #7B7375",
"{ 	c #877477",
"] 	c #CF242D",
"^ 	c #CF252F",
"/ 	c #877478",
"( 	c #626262",
"_ 	c #7A7174",
": 	c #CF242E",
"< 	c #7A7275",
"[ 	c #B74046",
"} 	c #D11B24",
"| 	c #D4252E",
"1 	c #B74149",
"2 	c #856E72",
"3 	c #DF5E64",
"4 	c #F5CBCD",
"5 	c #D73B43",
"6 	c #D6333A",
"7 	c #F4C5C7",
"8 	c #E26E74",
"9 	c #857074",
"0 	c #AA5157",
"a 	c #D11B23",
"b 	c #D3252E",
"c 	c #F5CCCE",
"d 	c #F9DEDF",
"e 	c #F4C9CB",
"f 	c #D6353D",
"g 	c #D6333B",
"h 	c #F3C6C8",
"i 	c #F6D1D4",
"j 	c #D42B33",
"k 	c #AA5258",
"l 	c #606060",
"m 	c #C2343C",
"n 	c #D11A23",
"o 	c #D73B42",
"p 	c #F4C6C8",
"q 	c #F5CFD2",
"r 	c #D8424A",
"s 	c #C1363F",
"t 	c #CF212A",
"u 	c #D83D45",
"v 	c #CD222B",
"w 	c #5F5F5F",
"x 	c #CF2029",
"y 	c #D42F37",
"z 	c #F2C0C2",
"A 	c #CE232D",
"B 	c #C2353C",
"C 	c #D6323A",
"D 	c #F3C3C5",
"E 	c #F3C7C9",
"F 	c #D73840",
"G 	c #5E5E5E",
"H 	c #A84F55",
"I 	c #D01A23",
"J 	c #D2242D",
"K 	c #F5CED1",
"L 	c #D83C44",
"M 	c #D6373F",
"N 	c #D32B32",
"O 	c #A85157",
"P 	c #816C70",
"Q 	c #E27075",
"R 	c #F6D2D4",
"S 	c #D84149",
"T 	c #D63840",
"U 	c #E68287",
"V 	c #816D71",
"W 	c #5D5D5D",
"X 	c #B53F45",
"Y 	c #D42C34",
"Z 	c #B44046",
"` 	c #746C6F",
" .	c #CD222C",
"..	c #D01922",
"+.	c #CD232C",
"@.	c #5C5C5C",
"#.	c #806D70",
"$.	c #CC232C",
"%.	c #7F6D71",
"&.	c #736A6D",
"*.	c #B43E44",
"=.	c #B33E44",
"-.	c #736B6E",
";.	c #5B5B5B",
">.	c #7E696D",
",.	c #A64E54",
"'.	c #C0333B",
").	c #CD242C",
"!.	c #BF343C",
"~.	c #A64E55",
"{.	c #7F6A6D",
"].	c #5A5A5A",
"^.	c #595959",
". . . . . . . . . . . . . . . . . . . . . . . + ",
"@ @ @ @ @ @ @ @ @ @ @ @ @ @ @ @ @ @ @ @ @ @ @ @ ",
"@ @ @ @ @ @ @ @ @ @ @ @ @ @ @ @ @ @ @ @ @ @ @ @ ",
"# # # # # # # # # # # # # # # # # # # # # # # # ",
"# # # # # # # # $ % & * = & - ; # # # # # # # # ",
"> > > > > > , ' ) ) ) ) ) ) ) ) ! ~ > > > > > > ",
"> > > > > { ] ) ) ) ) ) ) ) ) ) ) ^ / > > > > > ",
"( ( ( ( _ : ) ) ) ) ) ) ) ) ) ) ) ) : < ( ( ( ( ",
"( ( ( + [ } } } } | } } } } | } } } } 1 ( ( ( ( ",
"+ + + 2 } } } } 3 4 5 } } 6 7 8 } } } } 9 + + + ",
"+ + + 0 a a a b c d e f g h d i j a a a k + + + ",
"l l l m n n n n o 4 d p p d q r n n n n s l l l ",
"l l l t n n n n n g 7 d d c u n n n n n v l l l ",
"w w w x n n n n n y z d d p f n n n n n A w w w ",
"w w w B n n n n C D d 4 E d e F n n n n s w w w ",
"G G G H I I I J p d K L M 4 d c N I I I O G G G ",
"G G G P I I I I Q R S I I T 4 U I I I I V G G G ",
"W W W W X I I I I j I I I I Y I I I I Z W W W W ",
"W W W W `  .........................+.` W W W W ",
"@.@.@.@.@.#.$.....................$.%.@.@.@.@.@.",
"@.@.@.@.@.@.&.*.................=.-.@.@.@.@.@.@.",
";.;.;.;.;.;.;.;.>.,.'.).).!.~.{.;.;.;.;.;.;.;.;.",
";.;.;.;.;.;.;.;.;.;.;.;.;.;.;.;.;.;.;.;.;.;.;.;.",
"].].].].].].].].].].].].].].].].].].].].].].].].",
"].].].].].].].].].].].].].].].].].].].].].].].].",
"^.^.^.^.^.^.^.^.^.^.^.^.^.^.^.^.^.^.^.^.^.^.^.^."};
