/* XPM */
static char * hide_prelight_xpm[] = {
"24 26 56 1",
" 	c None",
".	c #666666",
"+	c #656565",
"@	c #646464",
"#	c #636363",
"$	c #898A8C",
"%	c #C3C4C6",
"&	c #E7E8E9",
"*	c #FCFCFC",
"=	c #FBFBFB",
"-	c #E8E8E9",
";	c #C2C4C6",
">	c #FFFFFF",
",	c #626262",
"'	c #D6D7D9",
")	c #D6D6D8",
"!	c #C2C4C5",
"~	c #C1C2C4",
"{	c #616161",
"]	c #87888A",
"^	c #868789",
"/	c #606060",
"(	c #E7E7E9",
"_	c #E8E8E8",
":	c #F8F8F8",
"<	c #E6E6E8",
"[	c #E1E1E1",
"}	c #696969",
"|	c #CDCDCD",
"1	c #FAFAFB",
"2	c #5F5F5F",
"3	c #E4E4E4",
"4	c #7A7A7A",
"5	c #797979",
"6	c #D2D2D2",
"7	c #FAFAFA",
"8	c #E5E5E7",
"9	c #5E5E5E",
"0	c #C0C0C3",
"a	c #BFC0C2",
"b	c #828386",
"c	c #FEFFFF",
"d	c #5D5D5D",
"e	c #BEBFC2",
"f	c #BEBFC1",
"g	c #D4D4D5",
"h	c #D3D4D5",
"i	c #5C5C5C",
"j	c #FEFEFF",
"k	c #BDBEC0",
"l	c #808184",
"m	c #E4E5E6",
"n	c #F8F9F9",
"o	c #5B5B5B",
"p	c #5A5A5A",
"q	c #595959",
"........................",
"++++++++++++++++++++++++",
"++++++++++++++++++++++++",
"@@@@@@@@@@@@@@@@@@@@@@@@",
"@@@@@@@@@@@@@@@@@@@@@@@@",
"########$%&*=-%$########",
"######@;>>>>>>>>;@######",
",,,,,#'>>>>>>>>>>)#,,,,,",
",,,,,!>>>>>>>>>>>>~,,,,,",
"{{{{]>>>>>>>>>>>>>>^{{{{",
"{{{{~>>>>>>>>>>>>>>~{{{{",
"////(>>=________:>><////",
"////=>>[}}}}}}}}|>>1////",
"2222=>>3444445556>>72222",
"2222<>>>>>>>>>>>>>>82222",
"99990>>>>>>>>>>>>>>a9999",
"9999bc>>>>>>>>>>>>cb9999",
"ddddde>>>>>>>>>>>>fddddd",
"ddddd9g>>>>>>>>>>h9ddddd",
"iiiiiidfj>>>>>>jkdiiiiii",
"iiiiiiiilkmnnmkliiiiiiii",
"oooooooooooooooooooooooo",
"oooooooooooooooooooooooo",
"pppppppppppppppppppppppp",
"pppppppppppppppppppppppp",
"qqqqqqqqqqqqqqqqqqqqqqqq"};
