/* XPM */
static char * hide_active_xpm[] = {
"24 26 21 1",
" 	c None",
".	c #666666",
"+	c #656565",
"@	c #646464",
"#	c #636363",
"$	c #626262",
"%	c #616161",
"&	c #606060",
"*	c #525252",
"=	c #2A2A2A",
"-	c #515151",
";	c #5F5F5F",
">	c #545454",
",	c #323232",
"'	c #313131",
")	c #5D5D5D",
"!	c #5A5A5A",
"~	c #5E5E5E",
"{	c #5C5C5C",
"]	c #5B5B5B",
"^	c #595959",
"........................",
"++++++++++++++++++++++++",
"++++++++++++++++++++++++",
"@@@@@@@@@@@@@@@@@@@@@@@@",
"@@@@@@@@@@@@@@@@@@@@@@@@",
"########################",
"########################",
"$$$$$$$$$$$$$$$$$$$$$$$$",
"$$$$$$$$$$$$$$$$$$$$$$$$",
"%%%%%%%%%%%%%%%%%%%%%%%%",
"%%%%%%%%%%%%%%%%%%%%%%%%",
"&&&&&&&&&&&&&&&&&&&&&&&&",
"&&&&&&&*========-&&&&&&&",
";;;;;;;>,,,,''''*;;;;;;;",
";;;;;;;)!!!!!!!!);;;;;;;",
"~~~~~~~~~~~~~~~~~~~~~~~~",
"~~~~~~~~~~~~~~~~~~~~~~~~",
"))))))))))))))))))))))))",
"))))))))))))))))))))))))",
"{{{{{{{{{{{{{{{{{{{{{{{{",
"{{{{{{{{{{{{{{{{{{{{{{{{",
"]]]]]]]]]]]]]]]]]]]]]]]]",
"]]]]]]]]]]]]]]]]]]]]]]]]",
"!!!!!!!!!!!!!!!!!!!!!!!!",
"!!!!!!!!!!!!!!!!!!!!!!!!",
"^^^^^^^^^^^^^^^^^^^^^^^^"};
