/* XPM */
static char * hide_pressed_xpm[] = {
"24 26 68 1",
" 	c None",
".	c #666666",
"+	c #656565",
"@	c #646464",
"#	c #636363",
"$	c #717275",
"%	c #5C5E61",
"&	c #434445",
"*	c #2E2E2F",
"=	c #303132",
"-	c #707274",
";	c #606060",
">	c #5D5E61",
",	c #2D2D2F",
"'	c #2B2C2D",
")	c #5C5D60",
"!	c #626262",
"~	c #5F5F5F",
"{	c #4B4C4F",
"]	c #4D4D50",
"^	c #5A5B5E",
"/	c #2B2B2D",
"(	c #5D5F62",
"_	c #616161",
":	c #6E7072",
"<	c #2A2B2D",
"[	c #2C2D2E",
"}	c #707073",
"|	c #2A2B2C",
"1	c #5B5C5F",
"2	c #404144",
"3	c #2E2F30",
"4	c #404142",
"5	c #323234",
"6	c #424345",
"7	c #2F2F31",
"8	c #2A2A2C",
"9	c #4B4C4D",
"0	c #D1D1D2",
"a	c #626364",
"b	c #303032",
"c	c #2F2F30",
"d	c #4B4B4D",
"e	c #303133",
"f	c #404143",
"g	c #292A2C",
"h	c #5E5E5E",
"i	c #58595C",
"j	c #292A2B",
"k	c #595A5D",
"l	c #6B6C6E",
"m	c #6C6D6F",
"n	c #5D5D5D",
"o	c #29292B",
"p	c #5A5A5D",
"q	c #5B5B5B",
"r	c #48494B",
"s	c #494A4C",
"t	c #5C5C5C",
"u	c #5A5A5A",
"v	c #56585B",
"w	c #28292A",
"x	c #595A5C",
"y	c #696A6D",
"z	c #57585B",
"A	c #3F4043",
"B	c #313133",
"C	c #595959",
"........................",
"++++++++++++++++++++++++",
"++++++++++++++++++++++++",
"@@@@@@@@@@@@@@@@@@@@@@@@",
"@@@@@@@@@@@@@@@@@@@@@@@@",
"########$%&*=&%-########",
"######;>,'''''',);######",
"!!!!!~{''''''''''];!!!!!",
"!!!!!^////////////(!!!!!",
"____:'<<<<<<<<<<<<[}____",
"____^||||||||||||||1____",
";;;;2||3444444445||6;;;;",
";;;;788900000000a88b;;;;",
"~~~~c88d00000000a88e~~~~",
"~~~~fgggggggggggggg6~~~~",
"hhhhijjjjjjjjjjjjjjkhhhh",
"hhhhl<jjjjjjjjjjjj<mhhhh",
"nnnnnioooooooooooopnnnnn",
"nnnnnqroooooooooosqnnnnn",
"ttttttuv8wwwwww8xutttttt",
"ttttttttyzABBfzytttttttt",
"qqqqqqqqqqqqqqqqqqqqqqqq",
"qqqqqqqqqqqqqqqqqqqqqqqq",
"uuuuuuuuuuuuuuuuuuuuuuuu",
"uuuuuuuuuuuuuuuuuuuuuuuu",
"CCCCCCCCCCCCCCCCCCCCCCCC"};
