/* XPM */
static char * maximize_pressed_xpm[] = {
"24 26 80 1",
" 	c None",
".	c #666666",
"+	c #656565",
"@	c #646464",
"#	c #636363",
"$	c #717275",
"%	c #5C5E61",
"&	c #434445",
"*	c #2E2E2F",
"=	c #303132",
"-	c #707274",
";	c #606060",
">	c #5D5E61",
",	c #2D2D2F",
"'	c #2B2C2D",
")	c #5C5D60",
"!	c #626262",
"~	c #5F5F5F",
"{	c #4B4C4F",
"]	c #4D4D50",
"^	c #5A5B5E",
"/	c #2B2B2D",
"(	c #2C2C2E",
"_	c #525254",
":	c #2F3031",
"<	c #5D5F62",
"[	c #616161",
"}	c #6E7072",
"|	c #2A2B2D",
"1	c #303032",
"2	c #D1D1D2",
"3	c #3B3C3D",
"4	c #2C2D2E",
"5	c #707073",
"6	c #2A2B2C",
"7	c #5B5C5F",
"8	c #404144",
"9	c #353537",
"0	c #404142",
"a	c #424345",
"b	c #2F2F31",
"c	c #2A2A2C",
"d	c #515253",
"e	c #5C5C5E",
"f	c #2F2F30",
"g	c #5C5C5D",
"h	c #303133",
"i	c #404143",
"j	c #292A2C",
"k	c #2E2E30",
"l	c #3A3B3C",
"m	c #3F3F41",
"n	c #494A4B",
"o	c #5E5E5E",
"p	c #58595C",
"q	c #292A2B",
"r	c #2E2F31",
"s	c #D1D1D1",
"t	c #595A5D",
"u	c #6B6C6E",
"v	c #2E2F30",
"w	c #6C6D6F",
"x	c #5D5D5D",
"y	c #29292B",
"z	c #5B5C5D",
"A	c #2D2E2F",
"B	c #5A5A5D",
"C	c #5B5B5B",
"D	c #48494B",
"E	c #494A4C",
"F	c #5C5C5C",
"G	c #5A5A5A",
"H	c #56585B",
"I	c #28292A",
"J	c #595A5C",
"K	c #696A6D",
"L	c #57585B",
"M	c #3F4043",
"N	c #313133",
"O	c #595959",
"........................",
"++++++++++++++++++++++++",
"++++++++++++++++++++++++",
"@@@@@@@@@@@@@@@@@@@@@@@@",
"@@@@@@@@@@@@@@@@@@@@@@@@",
"########$%&*=&%-########",
"######;>,'''''',);######",
"!!!!!~{''''''''''];!!!!!",
"!!!!!^////(__:////<!!!!!",
"[[[[}'||||1223||||45[[[[",
"[[[[^666661223666667[[[[",
";;;;866411922011466a;;;;",
";;;;bccd22222222ecc1;;;;",
"~~~~fccd22222222gcch~~~~",
"~~~~ijjkllm22nllkjja~~~~",
"oooopqqqqqrsslqqqqqtoooo",
"oooou|qqqqvsslqqqq|woooo",
"xxxxxpyyyy/zzAyyyyBxxxxx",
"xxxxxCDyyyyyyyyyyECxxxxx",
"FFFFFFGHcIIIIIIcJGFFFFFF",
"FFFFFFFFKLMNNiLKFFFFFFFF",
"CCCCCCCCCCCCCCCCCCCCCCCC",
"CCCCCCCCCCCCCCCCCCCCCCCC",
"GGGGGGGGGGGGGGGGGGGGGGGG",
"GGGGGGGGGGGGGGGGGGGGGGGG",
"OOOOOOOOOOOOOOOOOOOOOOOO"};
