/* XPM */
static char * maximize_active_xpm[] = {
"24 26 28 1",
" 	c None",
".	c #666666",
"+	c #656565",
"@	c #646464",
"#	c #636363",
"$	c #626262",
"%	c #616161",
"&	c #545454",
"*	c #5E5E5E",
"=	c #1D1D1D",
"-	c #5B5B5B",
";	c #5D5D5D",
">	c #606060",
",	c #222222",
"'	c #525252",
")	c #2A2A2A",
"!	c #515151",
"~	c #5F5F5F",
"{	c #323232",
"]	c #313131",
"^	c #5A5A5A",
"/	c #585858",
"(	c #393939",
"_	c #575757",
":	c #3E3E3E",
"<	c #5C5C5C",
"[	c #535353",
"}	c #595959",
"........................",
"++++++++++++++++++++++++",
"++++++++++++++++++++++++",
"@@@@@@@@@@@@@@@@@@@@@@@@",
"@@@@@@@@@@@@@@@@@@@@@@@@",
"########################",
"########################",
"$$$$$$$$$$$$$$$$$$$$$$$$",
"$$$$$$$$$$%&&%$$$$$$$$$$",
"%%%%%%%%%%*==-%%%%%%%%%%",
"%%%%%%%%%%;==-%%%%%%%%%%",
">>>>>>>>>>;,,->>>>>>>>>>",
">>>>>>>'))))))))!>>>>>>>",
"~~~~~~~&{{{{]]]]'~~~~~~~",
"~~~~~~~;^^/((_^^;~~~~~~~",
"**********;::<**********",
"**********<::-**********",
";;;;;;;;;;;[[<;;;;;;;;;;",
";;;;;;;;;;;;;;;;;;;;;;;;",
"<<<<<<<<<<<<<<<<<<<<<<<<",
"<<<<<<<<<<<<<<<<<<<<<<<<",
"------------------------",
"------------------------",
"^^^^^^^^^^^^^^^^^^^^^^^^",
"^^^^^^^^^^^^^^^^^^^^^^^^",
"}}}}}}}}}}}}}}}}}}}}}}}}"};
