/* XPM */
static char * maximize_prelight_xpm[] = {
"24 26 68 1",
" 	c None",
".	c #666666",
"+	c #656565",
"@	c #646464",
"#	c #636363",
"$	c #898A8C",
"%	c #C3C4C5",
"&	c #E7E8E7",
"*	c #FCFCFA",
"=	c #FBFBF9",
"-	c #E8E8E7",
";	c #C2C4C5",
">	c #FFFFFD",
",	c #626262",
"'	c #D6D7D8",
")	c #D6D6D7",
"!	c #C2C4C4",
"~	c #FEFEFC",
"{	c #D5D5D3",
"]	c #C1C2C4",
"^	c #616161",
"/	c #87888A",
"(	c #F9F9F7",
"_	c #4C4C4B",
":	c #EDEDEB",
"<	c #868789",
"[	c #606060",
"}	c #E7E7E7",
"|	c #FAFAF8",
"1	c #F5F5F3",
"2	c #575756",
"3	c #E8E8E6",
"4	c #E6E6E6",
"5	c #DBDBD9",
"6	c #676766",
"7	c #D1D1CF",
"8	c #FAFAF9",
"9	c #5F5F5F",
"0	c #E0E0DE",
"a	c #787877",
"b	c #D6D6D4",
"c	c #F3F3F1",
"d	c #F0F0EE",
"e	c #888887",
"f	c #E9E9E7",
"g	c #E5E5E5",
"h	c #5E5E5E",
"i	c #C0C0C2",
"j	c #929291",
"k	c #F4F4F2",
"l	c #BFBFC1",
"m	c #828386",
"n	c #FEFFFD",
"o	c #5D5D5D",
"p	c #BEBFC1",
"q	c #DEDEDC",
"r	c #BEBFC0",
"s	c #D4D4D5",
"t	c #D3D4D5",
"u	c #5C5C5C",
"v	c #FEFEFD",
"w	c #BDBEBF",
"x	c #808184",
"y	c #E4E5E4",
"z	c #F8F9F7",
"A	c #5B5B5B",
"B	c #5A5A5A",
"C	c #595959",
"........................",
"++++++++++++++++++++++++",
"++++++++++++++++++++++++",
"@@@@@@@@@@@@@@@@@@@@@@@@",
"@@@@@@@@@@@@@@@@@@@@@@@@",
"########$%&*=-%$########",
"######@;>>>>>>>>;@######",
",,,,,#'>>>>>>>>>>)#,,,,,",
",,,,,!>>>>~{{=>>>>],,,,,",
"^^^^/>>>>>(__:>>>>><^^^^",
"^^^^]>>>>>(__:>>>>>]^^^^",
"[[[[}>>~||1223||~>>4[[[[",
"[[[[=>>5666666667>>8[[[[",
"9999=>>0aaaaaaaab>>|9999",
"99994>>*ccdeefcc=>>g9999",
"hhhhi>>>>>=jjk>>>>>lhhhh",
"hhhhmn>>>>=jjk>>>>nmhhhh",
"ooooop>>>>>qq*>>>>rooooo",
"ooooohs>>>>>>>>>>thooooo",
"uuuuuuorv>>>>>>vwouuuuuu",
"uuuuuuuuxwyzzywxuuuuuuuu",
"AAAAAAAAAAAAAAAAAAAAAAAA",
"AAAAAAAAAAAAAAAAAAAAAAAA",
"BBBBBBBBBBBBBBBBBBBBBBBB",
"BBBBBBBBBBBBBBBBBBBBBBBB",
"CCCCCCCCCCCCCCCCCCCCCCCC"};
