/* XPM */
static char * menu_prelight_xpm[] = {
"24 26 56 1",
" 	c None",
".	c #666666",
"+	c #656565",
"@	c #646464",
"#	c #636363",
"$	c #898A8C",
"%	c #C3C4C5",
"&	c #E7E8E7",
"*	c #FCFCFA",
"=	c #FBFBF9",
"-	c #E8E8E7",
";	c #C2C4C5",
">	c #FFFFFD",
",	c #626262",
"'	c #D6D7D8",
")	c #D6D6D7",
"!	c #C2C4C4",
"~	c #C1C2C4",
"{	c #616161",
"]	c #87888A",
"^	c #868789",
"/	c #606060",
"(	c #E7E7E7",
"_	c #E6E6E6",
":	c #5A5A5A",
"<	c #FAFAF9",
"[	c #5F5F5F",
"}	c #6B6C6C",
"|	c #6C6B6C",
"1	c #6C6C6C",
"2	c #6B6B6C",
"3	c #FAFAF8",
"4	c #7E7D7D",
"5	c #7D7E7E",
"6	c #7E7E7E",
"7	c #E5E5E5",
"8	c #5E5E5E",
"9	c #C0C0C2",
"0	c #8F8F8F",
"a	c #8F908F",
"b	c #BFBFC1",
"c	c #828386",
"d	c #FEFFFD",
"e	c #5D5D5D",
"f	c #BEBFC1",
"g	c #BEBFC0",
"h	c #D4D4D5",
"i	c #D3D4D5",
"j	c #5C5C5C",
"k	c #FEFEFD",
"l	c #BDBEBF",
"m	c #808184",
"n	c #E4E5E4",
"o	c #F8F9F7",
"p	c #5B5B5B",
"q	c #595959",
"........................",
"++++++++++++++++++++++++",
"++++++++++++++++++++++++",
"@@@@@@@@@@@@@@@@@@@@@@@@",
"@@@@@@@@@@@@@@@@@@@@@@@@",
"########$%&*=-%$########",
"######@;>>>>>>>>;@######",
",,,,,#'>>>>>>>>>>)#,,,,,",
",,,,,!>>>>>>>>>>>>~,,,,,",
"{{{{]>>>>>>>>>>>>>>^{{{{",
"{{{{~>>>>>>>>>>>>>>~{{{{",
"////(>>>>>>>>>>>>>>_////",
"////=>>>::::::::>>><////",
"[[[[=>>>>}|112}>>>>3[[[[",
"[[[[_>>>>>4564>>>>>7[[[[",
"88889>>>>>>0a>>>>>>b8888",
"8888cd>>>>>>>>>>>>dc8888",
"eeeeef>>>>>>>>>>>>geeeee",
"eeeee8h>>>>>>>>>>i8eeeee",
"jjjjjjegk>>>>>>klejjjjjj",
"jjjjjjjjmlnoonlmjjjjjjjj",
"pppppppppppppppppppppppp",
"pppppppppppppppppppppppp",
"::::::::::::::::::::::::",
"::::::::::::::::::::::::",
"qqqqqqqqqqqqqqqqqqqqqqqq"};
