/* XPM */
static char * menu_pressed_xpm[] = {
"24 26 74 1",
" 	c None",
".	c #666666",
"+	c #656565",
"@	c #646464",
"#	c #636363",
"$	c #717275",
"%	c #5C5E61",
"&	c #434445",
"*	c #2E2E2F",
"=	c #303132",
"-	c #707274",
";	c #606060",
">	c #5D5E61",
",	c #2D2D2F",
"'	c #2B2C2D",
")	c #5C5D60",
"!	c #626262",
"~	c #5F5F5F",
"{	c #4B4C4F",
"]	c #4D4D50",
"^	c #5A5B5E",
"/	c #2B2B2D",
"(	c #5D5F62",
"_	c #616161",
":	c #6E7072",
"<	c #2A2B2D",
"[	c #2C2D2E",
"}	c #707073",
"|	c #2A2B2C",
"1	c #5B5C5F",
"2	c #404144",
"3	c #292A2B",
"4	c #424345",
"5	c #2F2F31",
"6	c #2A2A2C",
"7	c #9F9F9F",
"8	c #9E9E9E",
"9	c #303032",
"0	c #2F2F30",
"a	c #908F8F",
"b	c #8F8F8F",
"c	c #8E8E8E",
"d	c #8D8E8E",
"e	c #8D8D8D",
"f	c #8C8C8C",
"g	c #303133",
"h	c #404143",
"i	c #292A2C",
"j	c #7C7C7D",
"k	c #7B7C7C",
"l	c #7B7B7B",
"m	c #5E5E5E",
"n	c #58595C",
"o	c #6A696A",
"p	c #696869",
"q	c #595A5D",
"r	c #6B6C6E",
"s	c #6C6D6F",
"t	c #5D5D5D",
"u	c #29292B",
"v	c #5A5A5D",
"w	c #5B5B5B",
"x	c #48494B",
"y	c #494A4C",
"z	c #5C5C5C",
"A	c #5A5A5A",
"B	c #56585B",
"C	c #28292A",
"D	c #595A5C",
"E	c #696A6D",
"F	c #57585B",
"G	c #3F4043",
"H	c #313133",
"I	c #595959",
"........................",
"++++++++++++++++++++++++",
"++++++++++++++++++++++++",
"@@@@@@@@@@@@@@@@@@@@@@@@",
"@@@@@@@@@@@@@@@@@@@@@@@@",
"########$%&*=&%-########",
"######;>,'''''',);######",
"!!!!!~{''''''''''];!!!!!",
"!!!!!^////////////(!!!!!",
"____:'<<<<<<<<<<<<[}____",
"____^||||||||||||||1____",
";;;;2||3333333333||4;;;;",
";;;;5663777777783669;;;;",
"~~~~06633abcdef3366g~~~~",
"~~~~hiiiiijklliiiii4~~~~",
"mmmmn333333op333333qmmmm",
"mmmmr<333333333333<smmmm",
"tttttnuuuuuuuuuuuuvttttt",
"tttttwxuuuuuuuuuuywttttt",
"zzzzzzAB6CCCCCC6DAzzzzzz",
"zzzzzzzzEFGHHhFEzzzzzzzz",
"wwwwwwwwwwwwwwwwwwwwwwww",
"wwwwwwwwwwwwwwwwwwwwwwww",
"AAAAAAAAAAAAAAAAAAAAAAAA",
"AAAAAAAAAAAAAAAAAAAAAAAA",
"IIIIIIIIIIIIIIIIIIIIIIII"};
