/* XPM */
static char * menu_active_xpm[] = {
"24 26 20 1",
" 	c None",
".	c #666666",
"+	c #656565",
"@	c #646464",
"#	c #636363",
"$	c #626262",
"%	c #616161",
"&	c #606060",
"*	c #2C2C2C",
"=	c #5F5F5F",
"-	c #343434",
";	c #3C3C3C",
">	c #3B3B3B",
",	c #5E5E5E",
"'	c #444444",
")	c #5D5D5D",
"!	c #5C5C5C",
"~	c #5B5B5B",
"{	c #5A5A5A",
"]	c #595959",
"........................",
"++++++++++++++++++++++++",
"++++++++++++++++++++++++",
"@@@@@@@@@@@@@@@@@@@@@@@@",
"@@@@@@@@@@@@@@@@@@@@@@@@",
"########################",
"########################",
"$$$$$$$$$$$$$$$$$$$$$$$$",
"$$$$$$$$$$$$$$$$$$$$$$$$",
"%%%%%%%%%%%%%%%%%%%%%%%%",
"%%%%%%%%%%%%%%%%%%%%%%%%",
"&&&&&&&&&&&&&&&&&&&&&&&&",
"&&&&&&&&********&&&&&&&&",
"=========------=========",
"==========;;>;==========",
",,,,,,,,,,,'',,,,,,,,,,,",
",,,,,,,,,,,,,,,,,,,,,,,,",
"))))))))))))))))))))))))",
"))))))))))))))))))))))))",
"!!!!!!!!!!!!!!!!!!!!!!!!",
"!!!!!!!!!!!!!!!!!!!!!!!!",
"~~~~~~~~~~~~~~~~~~~~~~~~",
"~~~~~~~~~~~~~~~~~~~~~~~~",
"{{{{{{{{{{{{{{{{{{{{{{{{",
"{{{{{{{{{{{{{{{{{{{{{{{{",
"]]]]]]]]]]]]]]]]]]]]]]]]"};
