/* XPM */
static char * shade_pressed_xpm[] = {
"24 26 75 1",
" 	c None",
".	c #666666",
"+	c #656565",
"@	c #646464",
"#	c #636363",
"$	c #717275",
"%	c #5C5E61",
"&	c #434445",
"*	c #2E2E2F",
"=	c #303132",
"-	c #707274",
";	c #606060",
">	c #5D5E61",
",	c #2D2D2F",
"'	c #2B2C2D",
")	c #5C5D60",
"!	c #626262",
"~	c #5F5F5F",
"{	c #4B4C4F",
"]	c #4D4D50",
"^	c #5A5B5E",
"/	c #2B2B2D",
"(	c #5D5F62",
"_	c #616161",
":	c #6E7072",
"<	c #2A2B2D",
"[	c #9F9F9F",
"}	c #2C2D2E",
"|	c #707073",
"1	c #2A2B2C",
"2	c #8E8F8F",
"3	c #8E8E8E",
"4	c #8E8D8E",
"5	c #5B5C5F",
"6	c #404144",
"7	c #292A2B",
"8	c #7D7D7C",
"9	c #7C7C7D",
"0	c #7C7C7C",
"a	c #7B7B7B",
"b	c #424345",
"c	c #2F2F31",
"d	c #2A2A2C",
"e	c #6B6B6B",
"f	c #6B6B6A",
"g	c #6B6A6A",
"h	c #6A6A6A",
"i	c #696969",
"j	c #686969",
"k	c #303032",
"l	c #2F2F30",
"m	c #303133",
"n	c #404143",
"o	c #292A2C",
"p	c #5A5A5A",
"q	c #5E5E5E",
"r	c #58595C",
"s	c #595A5D",
"t	c #6B6C6E",
"u	c #6C6D6F",
"v	c #5D5D5D",
"w	c #29292B",
"x	c #5A5A5D",
"y	c #5B5B5B",
"z	c #48494B",
"A	c #494A4C",
"B	c #5C5C5C",
"C	c #56585B",
"D	c #28292A",
"E	c #595A5C",
"F	c #696A6D",
"G	c #57585B",
"H	c #3F4043",
"I	c #313133",
"J	c #595959",
"........................",
"++++++++++++++++++++++++",
"++++++++++++++++++++++++",
"@@@@@@@@@@@@@@@@@@@@@@@@",
"@@@@@@@@@@@@@@@@@@@@@@@@",
"########$%&*=&%-########",
"######;>,'''''',);######",
"!!!!!~{''''''''''];!!!!!",
"!!!!!^////////////(!!!!!",
"____:'<<<<<[[<<<<<}|____",
"____^111112234111115____",
";;;;611778900aa7711b;;;;",
";;;;cdd7efghhhij7ddk;;;;",
"~~~~ldd7777777777ddm~~~~",
"~~~~noooppppppppooob~~~~",
"qqqqr777pppppppp777sqqqq",
"qqqqt<777777777777<uqqqq",
"vvvvvrwwwwwwwwwwwwxvvvvv",
"vvvvvyzwwwwwwwwwwAyvvvvv",
"BBBBBBpCdDDDDDDdEpBBBBBB",
"BBBBBBBBFGHIInGFBBBBBBBB",
"yyyyyyyyyyyyyyyyyyyyyyyy",
"yyyyyyyyyyyyyyyyyyyyyyyy",
"pppppppppppppppppppppppp",
"pppppppppppppppppppppppp",
"JJJJJJJJJJJJJJJJJJJJJJJJ"};
