/* XPM */
static char * shade_active_xpm[] = {
"24 26 23 1",
" 	c None",
".	c #666666",
"+	c #656565",
"@	c #646464",
"#	c #636363",
"$	c #626262",
"%	c #616161",
"&	c #2C2C2C",
"*	c #303030",
"=	c #313131",
"-	c #606060",
";	c #353535",
">	c #3A3A3A",
",	c #5F5F5F",
"'	c #444444",
")	c #5E5E5E",
"!	c #484848",
"~	c #494949",
"{	c #5D5D5D",
"]	c #5C5C5C",
"^	c #5B5B5B",
"/	c #5A5A5A",
"(	c #595959",
"........................",
"++++++++++++++++++++++++",
"++++++++++++++++++++++++",
"@@@@@@@@@@@@@@@@@@@@@@@@",
"@@@@@@@@@@@@@@@@@@@@@@@@",
"########################",
"########################",
"$$$$$$$$$$$$$$$$$$$$$$$$",
"$$$$$$$$$$$$$$$$$$$$$$$$",
"%%%%%%%%%%%&&%%%%%%%%%%%",
"%%%%%%%%%%***=%%%%%%%%%%",
"---------;;;;;;---------",
"-------->>>>>>>>--------",
",,,,,,,,,,,,,,,,,,,,,,,,",
",,,,,,,,'''''''',,,,,,,,",
"))))))))!!~~~~~~))))))))",
"))))))))))))))))))))))))",
"{{{{{{{{{{{{{{{{{{{{{{{{",
"{{{{{{{{{{{{{{{{{{{{{{{{",
"]]]]]]]]]]]]]]]]]]]]]]]]",
"]]]]]]]]]]]]]]]]]]]]]]]]",
"^^^^^^^^^^^^^^^^^^^^^^^^",
"^^^^^^^^^^^^^^^^^^^^^^^^",
"////////////////////////",
"////////////////////////",
"(((((((((((((((((((((((("};
