/* XPM */
static char * shade_prelight_xpm[] = {
"24 26 64 1",
" 	c None",
".	c #666666",
"+	c #656565",
"@	c #646464",
"#	c #636363",
"$	c #898A8C",
"%	c #C3C4C5",
"&	c #E7E8E7",
"*	c #FCFCFA",
"=	c #FBFBF9",
"-	c #E8E8E7",
";	c #C2C4C5",
">	c #FFFFFD",
",	c #626262",
"'	c #D6D7D8",
")	c #D6D6D7",
"!	c #C2C4C4",
"~	c #C1C2C4",
"{	c #616161",
"]	c #87888A",
"^	c #5A5A5A",
"/	c #868789",
"(	c #606060",
"_	c #E7E7E7",
":	c #6E6F6E",
"<	c #6E6E6E",
"[	c #6E6E6F",
"}	c #E6E6E6",
"|	c #787878",
"1	c #797878",
"2	c #787978",
"3	c #787979",
"4	c #787879",
"5	c #FAFAF9",
"6	c #5F5F5F",
"7	c #FAFAF8",
"8	c #8C8C8C",
"9	c #8C8D8C",
"0	c #8C8C8D",
"a	c #8D8C8C",
"b	c #8D8D8C",
"c	c #E5E5E5",
"d	c #5E5E5E",
"e	c #C0C0C2",
"f	c #979796",
"g	c #969697",
"h	c #969696",
"i	c #969796",
"j	c #BFBFC1",
"k	c #828386",
"l	c #FEFFFD",
"m	c #5D5D5D",
"n	c #BEBFC1",
"o	c #BEBFC0",
"p	c #D4D4D5",
"q	c #D3D4D5",
"r	c #5C5C5C",
"s	c #FEFEFD",
"t	c #BDBEBF",
"u	c #808184",
"v	c #E4E5E4",
"w	c #F8F9F7",
"x	c #5B5B5B",
"y	c #595959",
"........................",
"++++++++++++++++++++++++",
"++++++++++++++++++++++++",
"@@@@@@@@@@@@@@@@@@@@@@@@",
"@@@@@@@@@@@@@@@@@@@@@@@@",
"########$%&*=-%$########",
"######@;>>>>>>>>;@######",
",,,,,#'>>>>>>>>>>)#,,,,,",
",,,,,!>>>>>>>>>>>>~,,,,,",
"{{{{]>>>>>>^^>>>>>>/{{{{",
"{{{{~>>>>>@@@@>>>>>~{{{{",
"((((_>>>>:<<<[<>>>>}((((",
"((((=>>>|121|3|4>>>5((((",
"6666=>>>>>>>>>>>>>>76666",
"6666}>>>890ab888>>>c6666",
"dddde>>>fghihigh>>>jdddd",
"ddddkl>>>>>>>>>>>>lkdddd",
"mmmmmn>>>>>>>>>>>>ommmmm",
"mmmmmdp>>>>>>>>>>qdmmmmm",
"rrrrrrmos>>>>>>stmrrrrrr",
"rrrrrrrrutvwwvturrrrrrrr",
"xxxxxxxxxxxxxxxxxxxxxxxx",
"xxxxxxxxxxxxxxxxxxxxxxxx",
"^^^^^^^^^^^^^^^^^^^^^^^^",
"^^^^^^^^^^^^^^^^^^^^^^^^",
"yyyyyyyyyyyyyyyyyyyyyyyy"};
