/* XPM */
static char * stick_pressed_xpm[] = {
"24 26 84 1",
" 	c None",
".	c #666666",
"+	c #656565",
"@	c #646464",
"#	c #636363",
"$	c #717275",
"%	c #5C5E61",
"&	c #434445",
"*	c #2E2E2F",
"=	c #303132",
"-	c #707274",
";	c #606060",
">	c #5D5E61",
",	c #2D2D2F",
"'	c #2B2C2D",
")	c #5C5D60",
"!	c #626262",
"~	c #5F5F5F",
"{	c #4B4C4F",
"]	c #4D4D50",
"^	c #5A5B5E",
"/	c #2B2B2D",
"(	c #5D5F62",
"_	c #616161",
":	c #6E7072",
"<	c #2A2B2D",
"[	c #2C2D2E",
"}	c #707073",
"|	c #2A2B2C",
"1	c #49494A",
"2	c #908F8F",
"3	c #8F8F90",
"4	c #5B5C5F",
"5	c #404144",
"6	c #292A2B",
"7	c #444546",
"8	c #999999",
"9	c #424345",
"0	c #2F2F31",
"a	c #2A2A2C",
"b	c #7C7C7D",
"c	c #8D8D8D",
"d	c #8E8D8D",
"e	c #8D8E8D",
"f	c #7C7D7C",
"g	c #303032",
"h	c #2F2F30",
"i	c #737373",
"j	c #828282",
"k	c #828182",
"l	c #818282",
"m	c #727373",
"n	c #303133",
"o	c #404143",
"p	c #292A2C",
"q	c #393A3B",
"r	c #767776",
"s	c #767676",
"t	c #777677",
"u	c #39393B",
"v	c #5E5E5E",
"w	c #58595C",
"x	c #353536",
"y	c #5F5E5F",
"z	c #353636",
"A	c #595A5D",
"B	c #6B6C6E",
"C	c #6C6D6F",
"D	c #5D5D5D",
"E	c #29292B",
"F	c #5A5A5D",
"G	c #5B5B5B",
"H	c #48494B",
"I	c #494A4C",
"J	c #5C5C5C",
"K	c #5A5A5A",
"L	c #56585B",
"M	c #28292A",
"N	c #595A5C",
"O	c #696A6D",
"P	c #57585B",
"Q	c #3F4043",
"R	c #313133",
"S	c #595959",
"........................",
"++++++++++++++++++++++++",
"++++++++++++++++++++++++",
"@@@@@@@@@@@@@@@@@@@@@@@@",
"@@@@@@@@@@@@@@@@@@@@@@@@",
"########$%&*=&%-########",
"######;>,'''''',);######",
"!!!!!~{''''''''''];!!!!!",
"!!!!!^////////////(!!!!!",
"____:'<<<<<<<<<<<<[}____",
"____^|||||1231|||||4____",
";;;;5||6678888766||9;;;;",
";;;;0aa66bccdef66aag;;;;",
"~~~~haa66ijkljm66aan~~~~",
"~~~~oppppqrsstupppp9~~~~",
"vvvvw66666x~yz66666Avvvv",
"vvvvB<666666666666<Cvvvv",
"DDDDDwEEEEEEEEEEEEFDDDDD",
"DDDDDGHEEEEEEEEEEIGDDDDD",
"JJJJJJKLaMMMMMMaNKJJJJJJ",
"JJJJJJJJOPQRRoPOJJJJJJJJ",
"GGGGGGGGGGGGGGGGGGGGGGGG",
"GGGGGGGGGGGGGGGGGGGGGGGG",
"KKKKKKKKKKKKKKKKKKKKKKKK",
"KKKKKKKKKKKKKKKKKKKKKKKK",
"SSSSSSSSSSSSSSSSSSSSSSSS"};
