/* XPM */
static char * stick_active_xpm[] = {
"24 26 37 1",
" 	c None",
".	c #666666",
"+	c #656565",
"@	c #646464",
"#	c #636363",
"$	c #626262",
"%	c #616161",
"&	c #707173",
"*	c #5E5F5F",
"=	c #606060",
"-	c #757679",
";	c #666565",
">	c #656666",
",	c #767679",
"'	c #737474",
")	c #717171",
"!	c #717271",
"~	c #747574",
"{	c #5F5F5F",
"]	c #7E7E7E",
"^	c #7D7C7C",
"/	c #7D7D7C",
"(	c #7D7D7D",
"_	c #858689",
":	c #888888",
"<	c #898889",
"[	c #868689",
"}	c #5E5E5E",
"|	c #8B8B8D",
"1	c #939393",
"2	c #949393",
"3	c #8B8B8E",
"4	c #5D5D5D",
"5	c #5C5C5C",
"6	c #5B5B5B",
"7	c #5A5A5A",
"8	c #595959",
"........................",
"++++++++++++++++++++++++",
"++++++++++++++++++++++++",
"@@@@@@@@@@@@@@@@@@@@@@@@",
"@@@@@@@@@@@@@@@@@@@@@@@@",
"########################",
"########################",
"$$$$$$$$$$$$$$$$$$$$$$$$",
"$$$$$$$$$$$$$$$$$$$$$$$$",
"%%%%%%%%%%%%%%%%%%%%%%%%",
"%%%%%%%%%%&**&%%%%%%%%%%",
"=========-+;.>,=========",
"========='))!!~=========",
"{{{{{{{{{]^/((]{{{{{{{{{",
"{{{{{{{{{_::<:[{{{{{{{{{",
"}}}}}}}}}}|123}}}}}}}}}}",
"}}}}}}}}}}}}}}}}}}}}}}}}",
"444444444444444444444444",
"444444444444444444444444",
"555555555555555555555555",
"555555555555555555555555",
"666666666666666666666666",
"666666666666666666666666",
"777777777777777777777777",
"777777777777777777777777",
"888888888888888888888888"};
