/* XPM */
static char * stick_prelight_xpm[] = {
"24 26 70 1",
" 	c None",
".	c #666666",
"+	c #656565",
"@	c #646464",
"#	c #636363",
"$	c #898A8C",
"%	c #C3C4C5",
"&	c #E7E8E7",
"*	c #FCFCFA",
"=	c #FBFBF9",
"-	c #E8E8E7",
";	c #C2C4C5",
">	c #FFFFFD",
",	c #626262",
"'	c #D6D7D8",
")	c #D6D6D7",
"!	c #C2C4C4",
"~	c #C1C2C4",
"{	c #616161",
"]	c #87888A",
"^	c #868789",
"/	c #9F9F9E",
"(	c #666767",
"_	c #676766",
":	c #606060",
"<	c #E7E7E7",
"[	c #A6A6A5",
"}	c #E6E6E6",
"|	c #7C7C7B",
"1	c #727272",
"2	c #717272",
"3	c #727172",
"4	c #7C7B7C",
"5	c #FAFAF9",
"6	c #5F5F5F",
"7	c #868686",
"8	c #7D7D7D",
"9	c #7D7E7D",
"0	c #7E7D7D",
"a	c #878686",
"b	c #FAFAF8",
"c	c #BAB9B9",
"d	c #898889",
"e	c #898989",
"f	c #888988",
"g	c #BABAB9",
"h	c #E5E5E5",
"i	c #5E5E5E",
"j	c #C0C0C2",
"k	c #C1C1C0",
"l	c #9B9B9B",
"m	c #9B9C9B",
"n	c #C0C0C0",
"o	c #BFBFC1",
"p	c #828386",
"q	c #FEFFFD",
"r	c #5D5D5D",
"s	c #BEBFC1",
"t	c #BEBFC0",
"u	c #D4D4D5",
"v	c #D3D4D5",
"w	c #5C5C5C",
"x	c #FEFEFD",
"y	c #BDBEBF",
"z	c #808184",
"A	c #E4E5E4",
"B	c #F8F9F7",
"C	c #5B5B5B",
"D	c #5A5A5A",
"E	c #595959",
"........................",
"++++++++++++++++++++++++",
"++++++++++++++++++++++++",
"@@@@@@@@@@@@@@@@@@@@@@@@",
"@@@@@@@@@@@@@@@@@@@@@@@@",
"########$%&*=-%$########",
"######@;>>>>>>>>;@######",
",,,,,#'>>>>>>>>>>)#,,,,,",
",,,,,!>>>>>>>>>>>>~,,,,,",
"{{{{]>>>>>>>>>>>>>>^{{{{",
"{{{{~>>>>>/(_/>>>>>~{{{{",
"::::<>>>>[....[>>>>}::::",
"::::=>>>>|11234>>>>5::::",
"6666=>>>>78908a>>>>b6666",
"6666}>>>>cdeefg>>>>h6666",
"iiiij>>>>>klmn>>>>>oiiii",
"iiiipq>>>>>>>>>>>>qpiiii",
"rrrrrs>>>>>>>>>>>>trrrrr",
"rrrrriu>>>>>>>>>>virrrrr",
"wwwwwwrtx>>>>>>xyrwwwwww",
"wwwwwwwwzyABBAyzwwwwwwww",
"CCCCCCCCCCCCCCCCCCCCCCCC",
"CCCCCCCCCCCCCCCCCCCCCCCC",
"DDDDDDDDDDDDDDDDDDDDDDDD",
"DDDDDDDDDDDDDDDDDDDDDDDD",
"EEEEEEEEEEEEEEEEEEEEEEEE"};
