/* XPM */
static char * top_right_inactive_xpm[] = {
"5 26 14 1",
" 	c None",
".	c #5D5D5D",
"+	c #656565",
"@	c #5F5F5F",
"#	c #646464",
"$	c #5C5C5C",
"%	c #636363",
"&	c #626262",
"*	c #616161",
"=	c #606060",
"-	c #5E5E5E",
";	c #5B5B5B",
">	c #5A5A5A",
",	c #595959",
".    ",
"++@  ",
"+++@ ",
"#### ",
"####$",
"%%%%@",
"%%%%%",
"&&&&&",
"&&&&&",
"*****",
"*****",
"=====",
"=====",
"@@@@@",
"@@@@@",
"-----",
"-----",
".....",
".....",
"$$$$$",
"$$$$$",
";;;;;",
";;;;;",
">>>>>",
">>>>>",
",,,,,"};
